<?xml version="1.0" encoding="UTF-8"?>
<svg version="1.1" xmlns="http://www.w3.org/2000/svg" width="774" height="339">
<path d="M0 0 C255.42 0 510.84 0 774 0 C774 111.87 774 223.74 774 339 C518.58 339 263.16 339 0 339 C0 227.13 0 115.26 0 0 Z " fill="#111111" transform="translate(0,0)"/>
<path d="M0 0 C54.78 0 109.56 0 166 0 C166 54.78 166 109.56 166 166 C111.22 166 56.44 166 0 166 C0 111.22 0 56.44 0 0 Z " fill="#111111" transform="translate(64,84)"/>
<path d="M0 0 C8.58 0 17.16 0 26 0 C26.29245605 1.85085205 26.58491211 3.7017041 26.88623047 5.60864258 C27.85907018 11.76346302 28.83308913 17.91809595 29.80788994 24.07260609 C30.39814522 27.79951994 30.98794523 31.5265046 31.57666016 35.25366211 C32.14613746 38.85891255 32.71686891 42.46396252 33.28842545 46.0688839 C33.50492005 47.43572794 33.72098291 48.80264044 33.93658066 50.16962624 C34.94709469 56.57505378 35.97276674 62.97756451 37.08642578 69.3659668 C37.23894806 70.24125534 37.39147034 71.11654388 37.5486145 72.01835632 C37.81282723 73.99029468 37.81282723 73.99029468 39 75 C40.41743043 66.68091063 41.71520405 58.34982818 42.9375 50 C43.28901607 47.61848273 43.64057894 45.23697237 43.9921875 42.85546875 C44.60520294 38.69192789 45.21452548 34.52787911 45.8203125 30.36328125 C47.31038023 20.18692724 49.03675698 10.09667837 51 0 C59.25 0 67.5 0 76 0 C76 37.95 76 75.9 76 115 C70.39 115 64.78 115 59 115 C58.67 89.92 58.34 64.84 58 39 C56.68 49.23 55.36 59.46 54 70 C53.34 73.63 52.68 77.26 52 81 C51.64131471 83.24265366 51.29403721 85.48720295 50.96484375 87.734375 C50.79533203 88.88550781 50.62582031 90.03664063 50.45117188 91.22265625 C50.1969043 92.96869141 50.1969043 92.96869141 49.9375 94.75 C49.67743164 96.51923828 49.67743164 96.51923828 49.41210938 98.32421875 C48.59637315 103.88122644 47.79430544 109.43986193 47 115 C41.06 115 35.12 115 29 115 C28.7525 113.288125 28.505 111.57625 28.25 109.8125 C27.33783995 103.84140974 26.22560333 97.92673191 25.0625 92 C23.36822783 83.30069964 21.99930712 74.58976273 20.80859375 65.80859375 C19.60961129 57.19561345 18.28997346 48.59982309 17 40 C16.67 64.75 16.34 89.5 16 115 C10.72 115 5.44 115 0 115 C0 77.05 0 39.1 0 0 Z " fill="#FBCBA6" transform="translate(600,89)"/>
<path d="M0 0 C41.07538803 0 41.07538803 0 47.3046875 4.76171875 C48.08199219 5.71498047 48.08199219 5.71498047 48.875 6.6875 C49.40867187 7.31011719 49.94234375 7.93273437 50.4921875 8.57421875 C54.94157306 15.73242713 55.49685817 22.12961073 55.4375 30.375 C55.4674707 31.84066406 55.4674707 31.84066406 55.49804688 33.3359375 C55.49254171 41.61570244 53.82310355 48.62604698 48.4375 55.0625 C46 57 46 57 43 58 C43 58.66 43 59.32 43 60 C43.556875 60.04125 44.11375 60.0825 44.6875 60.125 C48.73047884 61.65477578 51.03912558 65.02448497 52.87753296 68.8041687 C54.73179891 73.55835985 55.45223167 77.89464624 55.4765625 83.0078125 C55.49214203 83.73692841 55.50772156 84.46604431 55.52377319 85.21725464 C55.57079718 87.51982661 55.59888021 89.82210477 55.625 92.125 C55.66170223 94.43482585 55.70248258 96.74449299 55.74765015 99.0541687 C55.77450568 100.48321149 55.7960125 101.91236871 55.81118774 103.34158325 C55.87483824 107.40066082 56.32345991 110.94075945 57 115 C50.73 115 44.46 115 38 115 C36.7933182 111.37995459 36.82670703 108.03206499 36.7890625 104.26171875 C36.76098829 102.70376564 36.73232379 101.14582307 36.703125 99.58789062 C36.66193147 97.13908244 36.62503201 94.69046995 36.59863281 92.24145508 C36.57090407 89.87279908 36.52503124 87.50502934 36.4765625 85.13671875 C36.47330963 84.41151535 36.47005676 83.68631195 36.46670532 82.93913269 C36.35432422 78.25441182 35.48510882 74.97868432 33 71 C28.78362979 68.89181489 23.69776176 69.39148015 19 69 C19 84.18 19 99.36 19 115 C12.73 115 6.46 115 0 115 C0 77.05 0 39.1 0 0 Z " fill="#F9CAA4" transform="translate(466,89)"/>
<path d="M0 0 C8.91 0 17.82 0 27 0 C29.86442022 15.89415667 32.46300282 31.83116935 35.07202148 47.76873779 C35.55548147 50.72028198 36.04007029 53.67164035 36.52464867 56.6230011 C37.69492944 63.75096276 38.86091001 70.879609 40.02178001 78.0091095 C40.7538804 82.50201945 41.49484036 86.99340506 42.23876953 91.484375 C42.60858185 93.73955326 42.97822189 95.99475979 43.34765625 98.25 C43.51704208 99.26126953 43.68642792 100.27253906 43.86094666 101.31445312 C44.01261795 102.24708984 44.16428925 103.17972656 44.32055664 104.140625 C44.51881798 105.33993652 44.51881798 105.33993652 44.72108459 106.56347656 C45.04108783 109.35893126 45 112.18628909 45 115 C39.06 115 33.12 115 27 115 C24.90605914 107.671207 24.43256284 101.56984969 24 94 C16.41 94 8.82 94 1 94 C0.75173737 98.66580055 0.75173737 98.66580055 0.52197266 103.33251953 C0.25739004 107.74661948 -0.55195534 110.65586603 -2 115 C-7.28 115 -12.56 115 -18 115 C-17.42014297 107.14293725 -16.55294256 99.45437466 -15.25 91.6875 C-14.88668416 89.46875566 -14.52340452 87.2500054 -14.16015625 85.03125 C-13.87422607 83.30068359 -13.87422607 83.30068359 -13.58251953 81.53515625 C-12.60260983 75.58834467 -11.64634668 69.63773709 -10.6875 63.6875 C-10.48576172 62.440896 -10.28402344 61.19429199 -10.07617188 59.90991211 C-8.75270831 51.72532138 -7.45116603 43.53742889 -6.16015625 35.34765625 C-5.84094346 33.32657218 -5.52168889 31.30549471 -5.20239258 29.28442383 C-4.72717172 26.27630947 -4.25283179 23.26807039 -3.78134155 20.2593689 C-3.34084486 17.44859583 -2.89726974 14.63832357 -2.453125 11.828125 C-2.32104141 10.97956436 -2.18895782 10.13100372 -2.0528717 9.25672913 C-1.54703231 6.07059146 -1.02215269 3.06645806 0 0 Z " fill="#F9CAA5" transform="translate(281,89)"/>
<path d="M0 0 C9.24 0 18.48 0 28 0 C29.10382375 6.8642435 30.20688944 13.72860054 31.30810547 20.59326172 C31.68202297 22.9227581 32.05636258 25.25218677 32.43115234 27.58154297 C36.08356204 50.28492163 36.08356204 50.28492163 37.57910156 61.02441406 C38.30136601 66.13053884 39.11877411 71.22109923 39.9375 76.3125 C40.10862305 77.38628906 40.27974609 78.46007812 40.45605469 79.56640625 C41.23408398 84.41134101 42.03030023 89.24948734 42.92578125 94.07421875 C43.0657251 94.83114014 43.20566895 95.58806152 43.34985352 96.36791992 C43.72007263 98.3405395 44.10172396 100.31100424 44.484375 102.28125 C45 106 45 106 45 115 C39.06 115 33.12 115 27 115 C25.54575515 108.21352404 24.7007839 102.00783904 24 95 C16.74 95 9.48 95 2 95 C1.38327629 100.45919625 1.38327629 100.45919625 0.77368164 105.91918945 C0.65561157 106.94338989 0.65561157 106.94338989 0.53515625 107.98828125 C0.456604 108.68477783 0.37805176 109.38127441 0.29711914 110.09887695 C0 112 0 112 -1 115 C-6.61 115 -12.22 115 -18 115 C-15.85593229 98.59534066 -13.34216258 82.26659478 -10.6875 65.9375 C-10.28956072 63.47725141 -9.89185813 61.01696453 -9.49438477 58.55664062 C-8.51486488 52.4973894 -7.53230071 46.43863704 -6.54858398 40.38006592 C-5.72353827 35.29659835 -4.90087514 30.21274576 -4.078125 25.12890625 C-2.72197047 16.75207892 -1.36214484 8.37585533 0 0 Z " fill="#FACAA5" transform="translate(546,89)"/>
<path d="M0 0 C8.91 0 17.82 0 27 0 C30.72005578 18.72694749 33.91441692 37.47788518 36.80407715 56.34576416 C37.34133691 59.84755745 37.88370256 63.34855938 38.42578125 66.84960938 C39.05450647 70.91084645 39.68253941 74.97217995 40.3057251 79.03427124 C41.17420922 84.68921465 42.04870635 90.34243628 42.97167969 95.98876953 C43.11451385 96.86719009 43.25734802 97.74561066 43.4045105 98.65065002 C43.65942237 100.2093876 43.91807341 101.7675216 44.18167114 103.32481384 C44.83847189 107.3479964 45 110.86231993 45 115 C39.06 115 33.12 115 27 115 C26.01 108.07 25.02 101.14 24 94 C16.41 94 8.82 94 1 94 C1 97.3 1 100.6 1 104 C0.51764095 107.72966909 -0.24314738 111.31034346 -1 115 C-6.61 115 -12.22 115 -18 115 C-16.75963336 103.0511347 -15.16998321 91.27120459 -13.125 79.4375 C-12.71898598 77.05222931 -12.31485869 74.66664366 -11.91082764 72.28103638 C-11.64385806 70.7053175 -11.3763279 69.1296935 -11.10821533 67.5541687 C-10.0295547 61.20939028 -9.00258802 54.85724622 -8 48.5 C-5.43839163 32.31617371 -2.70687175 16.16002436 0 0 Z " fill="#FACBA5" transform="translate(348,89)"/>
<path d="M0 0 C6.05469698 4.94855042 9.53709218 11.36628101 11 19 C11.42399768 25.01815788 11.18149322 30.96535034 11 37 C5.06 37 -0.88 37 -7 37 C-7.02578125 35.67484375 -7.0515625 34.3496875 -7.078125 32.984375 C-7.13440966 31.23955056 -7.19175692 29.49476017 -7.25 27.75 C-7.26417969 26.87730469 -7.27835937 26.00460938 -7.29296875 25.10546875 C-7.46929196 19.93668886 -7.46929196 19.93668886 -9.796875 15.421875 C-12.11552305 13.92544257 -13.26939578 13.45733431 -16 13.5 C-16.99 13.48453125 -16.99 13.48453125 -18 13.46875 C-20.97977409 14.26025249 -22.09743281 15.58777578 -24 18 C-24.59356889 21.35930547 -24.59356889 21.35930547 -24.48583984 25.18359375 C-24.48963654 25.89951691 -24.49343323 26.61544006 -24.49734497 27.35305786 C-24.5047427 29.71498706 -24.48338061 32.0756805 -24.4609375 34.4375 C-24.45855246 36.08129736 -24.45764788 37.72509748 -24.4581604 39.36889648 C-24.45503374 42.81218559 -24.43847933 46.25505792 -24.41162109 49.69824219 C-24.37764135 54.11011471 -24.36999262 58.5215294 -24.37151146 62.93351746 C-24.37096738 66.3273149 -24.35999415 69.72101242 -24.34550858 73.11477661 C-24.33914794 74.74145756 -24.3352034 76.36814982 -24.33372116 77.99484253 C-24.32938028 80.26889289 -24.31186288 82.54245994 -24.29052734 84.81640625 C-24.28290375 86.11006104 -24.27528015 87.40371582 -24.26742554 88.73657227 C-24.01757272 91.7855579 -23.71314546 93.50262133 -22 96 C-18.87293041 97.5635348 -15.42017557 97.39958487 -12 97 C-8.75150023 95.27773504 -8.75150023 95.27773504 -8 92 C-7.85013589 90.0093556 -7.75171962 88.01464609 -7.68359375 86.01953125 C-7.62075195 84.27446289 -7.62075195 84.27446289 -7.55664062 82.49414062 C-7.51732422 81.27919922 -7.47800781 80.06425781 -7.4375 78.8125 C-7.37272461 76.97268555 -7.37272461 76.97268555 -7.30664062 75.09570312 C-7.2004691 72.06391619 -7.09842048 69.03204685 -7 66 C-9.64 66 -12.28 66 -15 66 C-15 60.39 -15 54.78 -15 49 C-6.42 49 2.16 49 11 49 C11.09235027 54.92324354 11.1718298 60.84394134 11.21972656 66.76733398 C11.23971393 68.77783724 11.26691326 70.78828333 11.30175781 72.79858398 C11.74495671 99.04508346 11.74495671 99.04508346 2.703125 108.56640625 C-1.88260837 112.42641576 -7.0331979 114.51291411 -13 115 C-13.65484375 115.06316406 -14.3096875 115.12632812 -14.984375 115.19140625 C-22.26783049 115.59173802 -29.3106359 113.89829897 -35.11328125 109.33984375 C-44.3661867 99.69066826 -44.60587677 87.6690621 -44.53125 75.08984375 C-44.53395157 73.47042102 -44.5378395 71.85099988 -44.54284668 70.23158264 C-44.54870886 66.85532015 -44.54028478 63.47948399 -44.52148438 60.10327148 C-44.49867796 55.80069828 -44.5118489 51.49912253 -44.53577423 47.19658566 C-44.55030607 43.85828792 -44.54559297 40.52022235 -44.53526306 37.18191719 C-44.53261706 35.59647055 -44.53578962 34.01100201 -44.54518127 32.42558098 C-44.59971915 20.63693372 -43.55212875 10.61335085 -35.03125 1.6953125 C-25.39879807 -6.34408008 -10.49698535 -6.52365463 0 0 Z " fill="#F6C7A3" transform="translate(444,91)"/>
<path d="M0 0 C1.46721522 0.89027636 2.90936853 1.82430235 4.3125 2.8125 C4.89257812 3.19664062 5.47265625 3.58078125 6.0703125 3.9765625 C11.73128041 8.15828252 15.86618295 14.97536483 17.3125 21.8125 C18.32784792 32.4189806 16.51027172 41.33167634 9.6875 49.6875 C4.45647954 55.16387789 -2.85161534 59.40392803 -10.5078125 60.05078125 C-21.49928673 60.29763469 -29.65076464 57.48073876 -37.6875 49.8125 C-44.51958949 40.98627271 -45.37295819 32.69986092 -44.6875 21.8125 C-43.45881018 12.82436688 -37.40108402 6.5201869 -30.47265625 1.0703125 C-21.81574157 -4.16823074 -9.07873078 -4.32647534 0 0 Z " fill="#FC837B" transform="translate(137.6875,162.1875)"/>
<path d="M0 0 C54.78 0 109.56 0 166 0 C166 54.78 166 109.56 166 166 C111.22 166 56.44 166 0 166 C0 111.22 0 56.44 0 0 Z M4 4 C4 55.81 4 107.62 4 161 C55.81 161 107.62 161 161 161 C161 109.19 161 57.38 161 4 C109.19 4 57.38 4 4 4 Z " fill="#E87871" transform="translate(64,84)"/>
<path d="M0 0 C12 0 12 0 17 3 C19.71918721 7.41149103 19.33183793 12.41350466 19.3125 17.4375 C19.32861328 18.27087891 19.34472656 19.10425781 19.36132812 19.96289062 C19.36536284 25.06680642 18.81868368 28.57651831 16 33 C11.06101243 37.63030085 7.51906428 36 0 36 C0 24.12 0 12.24 0 0 Z " fill="#1E1C19" transform="translate(484,105)"/>
<path d="M0 0 C2.90965344 2.90965344 2.75751304 6.23102933 3.21875 10.15625 C3.32215698 10.97315308 3.42556396 11.79005615 3.53210449 12.63171387 C3.8628135 15.25354095 4.18205548 17.87659691 4.5 20.5 C4.9222345 23.92770093 5.34973518 27.35470544 5.78125 30.78125 C5.88390167 31.60215118 5.98655334 32.42305237 6.09231567 33.26882935 C6.73334065 38.27752682 7.56192363 43.19716938 8.63378906 48.13378906 C9.34999324 51.78356555 9.11933955 55.3004741 9 59 C3.39 59 -2.22 59 -8 59 C-7.15438102 48.71163577 -6.14631954 38.40794841 -4.03515625 28.29296875 C-2.85483172 22.52206606 -2.10346584 16.71759334 -1.375 10.875 C-1.2409375 9.823125 -1.106875 8.77125 -0.96875 7.6875 C-0.6426625 5.12538394 -0.31980257 2.56290678 0 0 Z " fill="#1D1A18" transform="translate(360,109)"/>
<path d="M0 0 C0.66 0 1.32 0 2 0 C2.16604736 1.32221558 2.16604736 1.32221558 2.33544922 2.67114258 C2.75427796 5.99453335 3.17582665 9.31755705 3.59912109 12.64038086 C3.78052196 14.06863175 3.96089052 15.49701421 4.14013672 16.92553711 C5.09294388 24.51339523 6.12699251 32.05572273 7.55810547 39.5715332 C8.22924243 43.25982013 8.68854269 46.96537574 9.125 50.6875 C9.41375 53.100625 9.7025 55.51375 10 58 C4.06 58 -1.88 58 -8 58 C-7.71125 55.23625 -7.4225 52.4725 -7.125 49.625 C-7.03879395 48.77631348 -6.95258789 47.92762695 -6.86376953 47.05322266 C-6.43808768 43.11049072 -5.88391966 39.25549976 -5.0625 35.375 C-3.61374499 28.43423251 -2.78242833 21.40213834 -1.875 14.375 C-1.69171478 12.97521998 -1.50812317 11.57548005 -1.32421875 10.17578125 C-0.87980918 6.78423456 -0.43848017 3.39231749 0 0 Z " fill="#1C1A18" transform="translate(558,110)"/>
<path d="M0 0 C2.44339656 3.66509484 2.71231693 6.95420092 3.21875 11.21875 C3.32215698 12.03186646 3.42556396 12.84498291 3.53210449 13.68273926 C3.86221607 16.28761741 4.18167181 18.89365787 4.5 21.5 C4.92296735 24.90677488 5.35079111 28.31291414 5.78125 31.71875 C5.88381104 32.53778809 5.98637207 33.35682617 6.09204102 34.20068359 C6.75652424 39.40747886 7.56955996 44.55407365 8.65039062 49.69335938 C9 52 9 52 9 58 C3.39 58 -2.22 58 -8 58 C-7.40572291 49.18893259 -6.4687263 40.53846553 -5.125 31.8125 C-4.94936523 30.64936279 -4.77373047 29.48622559 -4.59277344 28.2878418 C-3.15620848 18.84262276 -1.62448492 9.41462853 0 0 Z " fill="#191716" transform="translate(293,110)"/>
<path d="M0 0 C3.24480577 1.78863269 6.31711125 3.6342225 8 7 C8.68128376 13.81283762 8.68128376 13.81283762 6.953125 16.82421875 C4.60078939 19.68161465 2.72887223 21.73166816 -0.98828125 22.30859375 C-7.14586004 22.65010652 -7.14586004 22.65010652 -9.66796875 20.73046875 C-13.51777596 16.09037854 -14.50683201 12.98061769 -14 7 C-10.47298039 1.33157563 -6.69030818 -0.91827759 0 0 Z " fill="#F57F77" transform="translate(197,107)"/>
<path d="M0 0 C3.4375 0.875 3.4375 0.875 5.4375 3.875 C5.63293996 6.74911708 5.71625966 9.50382717 5.6875 12.375 C5.69523437 13.14714844 5.70296875 13.91929687 5.7109375 14.71484375 C5.69743153 18.61131468 5.64425169 20.56487247 3.4375 23.875 C1.5625 24.2734375 1.5625 24.2734375 -0.5625 24.25 C-1.26375 24.25773437 -1.965 24.26546875 -2.6875 24.2734375 C-4.5625 23.875 -4.5625 23.875 -6.5625 20.875 C-6.98411515 17.88884046 -6.88684284 14.88781745 -6.875 11.875 C-6.89111328 11.05515625 -6.90722656 10.2353125 -6.92382812 9.390625 C-6.92447266 8.60171875 -6.92511719 7.8128125 -6.92578125 7 C-6.92876221 6.28070313 -6.93174316 5.56140625 -6.93481445 4.8203125 C-6.11681143 0.54631374 -4.1239633 -0.14470047 0 0 Z " fill="#EABE9B" transform="translate(431.5625,223.125)"/>
<path d="M0 0 C1.670625 0.37125 1.670625 0.37125 3.375 0.75 C5.07688447 4.15376894 4.55958114 7.93675899 4.5625 11.6875 C4.57474609 12.51185547 4.58699219 13.33621094 4.59960938 14.18554688 C4.60250977 15.37567383 4.60250977 15.37567383 4.60546875 16.58984375 C4.60957764 17.31550537 4.61368652 18.04116699 4.61791992 18.78881836 C4.375 20.75 4.375 20.75 2.375 23.75 C-1.125 24.0625 -1.125 24.0625 -4.625 23.75 C-7.50825223 20.86674777 -6.91574451 18.50550535 -6.94726562 14.5625 C-6.94404297 13.634375 -6.94082031 12.70625 -6.9375 11.75 C-6.95361328 10.821875 -6.96972656 9.89375 -6.98632812 8.9375 C-6.98697266 8.050625 -6.98761719 7.16375 -6.98828125 6.25 C-6.99126221 5.4353125 -6.99424316 4.620625 -6.99731445 3.78125 C-6.8130188 2.77578125 -6.8130188 2.77578125 -6.625 1.75 C-3.625 -0.25 -3.625 -0.25 0 0 Z " fill="#E8BC9A" transform="translate(297.625,223.25)"/>
<path d="M0 0 C1.32 0 2.64 0 4 0 C4.33 6.6 4.66 13.2 5 20 C5.66 20 6.32 20 7 20 C7.33 13.4 7.66 6.8 8 0 C9.32 0 10.64 0 12 0 C12.05802698 3.43742918 12.09360486 6.87473253 12.125 10.3125 C12.15013672 11.77719727 12.15013672 11.77719727 12.17578125 13.27148438 C12.18222656 14.20927734 12.18867188 15.14707031 12.1953125 16.11328125 C12.20578613 16.97735596 12.21625977 17.84143066 12.22705078 18.73168945 C12 21 12 21 10 24 C8.125 24.3984375 8.125 24.3984375 6 24.375 C5.29875 24.38273437 4.5975 24.39046875 3.875 24.3984375 C2 24 2 24 0 21 C-0.22705078 18.73168945 -0.22705078 18.73168945 -0.1953125 16.11328125 C-0.18886719 15.17548828 -0.18242187 14.23769531 -0.17578125 13.27148438 C-0.15902344 12.29501953 -0.14226562 11.31855469 -0.125 10.3125 C-0.11597656 9.32443359 -0.10695313 8.33636719 -0.09765625 7.31835938 C-0.0740843 4.87866235 -0.04118022 2.43945303 0 0 Z " fill="#E5BA98" transform="translate(454,223)"/>
<path d="M0 0 C7 0 7 0 9.4375 0.9375 C11.6426188 3.84825681 11.4395449 6.27305769 11.43359375 9.84375 C10.90350795 12.47985234 10.13353226 13.39985081 8 15 C5.3125 15.1875 5.3125 15.1875 3 15 C3 17.97 3 20.94 3 24 C2.01 24 1.02 24 0 24 C0 16.08 0 8.16 0 0 Z " fill="#F3C5A1" transform="translate(263,223)"/>
<path d="M0 0 C0.99 0 1.98 0 3 0 C3.33 2.97 3.66 5.94 4 9 C5.32 6.03 6.64 3.06 8 0 C9.32 0 10.64 0 12 0 C10.16380298 4.72164948 10.16380298 4.72164948 8.8828125 6.8984375 C7.79391011 9.49060337 8.0505448 10.68115225 8.75 13.375 C8.94851563 14.15488281 9.14703125 14.93476563 9.3515625 15.73828125 C10.15028391 18.52418302 11.02079282 21.27220858 12 24 C10.68 24 9.36 24 8 24 C6.68 21.36 5.36 18.72 4 16 C3.67 18.64 3.34 21.28 3 24 C2.01 24 1.02 24 0 24 C0 16.08 0 8.16 0 0 Z " fill="#F4C6A1" transform="translate(554,223)"/>
<path d="M0 0 C2.9375 0.75 2.9375 0.75 4.9375 2.75 C4.9375 4.07 4.9375 5.39 4.9375 6.75 C3.6175 6.75 2.2975 6.75 0.9375 6.75 C0.9375 5.76 0.9375 4.77 0.9375 3.75 C-0.0525 3.75 -1.0425 3.75 -2.0625 3.75 C-1.0486795 7.62095101 -0.11538794 9.69219225 2.625 12.6875 C4.9375 15.75 4.9375 15.75 4.8125 19.5625 C3.9375 22.75 3.9375 22.75 2.9375 23.75 C0.26691149 23.89115161 -2.38682238 23.79247107 -5.0625 23.75 C-5.3925 21.44 -5.7225 19.13 -6.0625 16.75 C-5.0725 16.75 -4.0825 16.75 -3.0625 16.75 C-2.7325 17.74 -2.4025 18.73 -2.0625 19.75 C-1.4025 19.75 -0.7425 19.75 -0.0625 19.75 C-0.37619406 16.09023602 -0.83179341 14.95819863 -3.625 12.4375 C-6.17925835 9.62126643 -6.45299985 9.13091667 -6.5625 5.5625 C-6.3975 4.304375 -6.2325 3.04625 -6.0625 1.75 C-3.0625 -0.25 -3.0625 -0.25 0 0 Z " fill="#EBBF9C" transform="translate(326.0625,223.25)"/>
<path d="M0 0 C3.63 0 7.26 0 11 0 C11 1.32 11 2.64 11 4 C8.69 4 6.38 4 4 4 C4 6.31 4 8.62 4 11 C5.65 11 7.3 11 9 11 C9 11.99 9 12.98 9 14 C7.35 14 5.7 14 4 14 C4 16.31 4 18.62 4 21 C5.98 21 7.96 21 10 21 C10 21.99 10 22.98 10 24 C6.7 24 3.4 24 0 24 C0 16.08 0 8.16 0 0 Z " fill="#E9BD9B" transform="translate(583,223)"/>
<path d="M0 0 C1.32 0 2.64 0 4 0 C4.66 2.31 5.32 4.62 6 7 C7.20628008 4.66785852 8.1654738 2.50357861 9 0 C10.32 0 11.64 0 13 0 C12.05477198 3.84842837 11.10795017 7.65074946 9.9375 11.4375 C8.83816356 15.61497846 8.37002866 19.70571999 8 24 C6.68 24 5.36 24 4 24 C3.87882812 22.97519531 3.75765625 21.95039063 3.6328125 20.89453125 C3.46389541 19.53381021 3.2946048 18.1731355 3.125 16.8125 C3.00705078 15.80219727 3.00705078 15.80219727 2.88671875 14.77148438 C2.39150699 10.86693008 1.48827173 7.62062743 0 4 C0 2.68 0 1.36 0 0 Z " fill="#E6BB99" transform="translate(396,223)"/>
<path d="M0 0 C3.96 0 7.92 0 12 0 C12 1.32 12 2.64 12 4 C10.68 4 9.36 4 8 4 C8 10.6 8 17.2 8 24 C6.68 24 5.36 24 4 24 C4 17.4 4 10.8 4 4 C2.68 4 1.36 4 0 4 C0 2.68 0 1.36 0 0 Z " fill="#E9BD9B" transform="translate(347,223)"/>
<path d="M0 0 C1.32 0 2.64 0 4 0 C4 6.93 4 13.86 4 21 C5.98 21 7.96 21 10 21 C10 21.99 10 22.98 10 24 C6.7 24 3.4 24 0 24 C0 16.08 0 8.16 0 0 Z " fill="#E5BA98" transform="translate(504,223)"/>
<path d="M0 0 C0.99 0 1.98 0 3 0 C3 7.92 3 15.84 3 24 C2.01 24 1.02 24 0 24 C0 16.08 0 8.16 0 0 Z " fill="#FBCCA6" transform="translate(532,223)"/>
<path d="M0 0 C1.32 0 2.64 0 4 0 C4 5.28 4 10.56 4 16 C2.68 16 1.36 16 0 16 C0 10.72 0 5.44 0 0 Z " fill="#1D1B19" transform="translate(429,227)"/>
<path d="M0 0 C0.99 0 1.98 0 3 0 C3 5.61 3 11.22 3 17 C2.01 17 1.02 17 0 17 C0 11.39 0 5.78 0 0 Z " fill="#121212" transform="translate(295,227)"/>
<path d="M0 0 C1.32 0 2.64 0 4 0 C4 2.31 4 4.62 4 7 C2.68 7.33 1.36 7.66 0 8 C0 5.36 0 2.72 0 0 Z " fill="#302924" transform="translate(266,227)"/>
<path d="M0 0 C2.1519437 3.22791555 2.20086443 4.28400809 2 8 C1.01 8.33 0.02 8.66 -1 9 C-0.67 6.03 -0.34 3.06 0 0 Z " fill="#423830" transform="translate(293,110)"/>
</svg>
