	<svg version="1.1" id="Layer_1" xmlns="http://www.w3.org/2000/svg" xmlns:xlink="http://www.w3.org/1999/xlink" x="0px" y="0px"
		width="100%" viewBox="0 0 675 220" enable-background="new 0 0 675 220" xml:space="preserve">
	<path fill="#180D07" opacity="1.000000" stroke="none" 
		d="
	M515.000000,221.000000 
		C343.381104,221.000000 172.262177,221.000000 1.071636,221.000000 
		C1.071636,147.734940 1.071636,74.469803 1.071636,1.102327 
		C225.999969,1.102327 450.999969,1.102327 675.977295,1.102327 
		C675.977295,74.404587 675.977295,147.702301 675.977295,221.000000 
		C622.469666,221.000000 568.984863,221.000000 515.000000,221.000000 
	M140.090576,20.062778 
		C135.405655,20.098198 130.720734,20.133619 125.098930,20.065184 
		C113.384163,20.098713 101.669388,20.132244 89.025627,20.098806 
		C82.346176,20.114964 75.666718,20.131121 68.056923,20.059732 
		C62.693398,20.091688 57.329876,20.123644 51.039898,20.073303 
		C46.021671,20.103762 41.003445,20.134218 35.089069,20.059301 
		C32.517838,20.059301 29.946602,20.059301 26.994131,20.059301 
		C26.994131,22.851696 26.994120,24.825516 26.994133,26.799335 
		C26.994492,77.177299 26.994032,127.555260 26.996054,177.933228 
		C26.996370,185.861420 27.001575,185.861420 35.933048,185.354034 
		C40.627151,185.277649 45.321255,185.201279 50.934479,185.310913 
		C56.637104,185.247986 62.339733,185.185074 68.959213,185.311386 
		C76.295677,185.280533 83.632133,185.249680 91.759544,185.437592 
		C103.516159,185.360779 115.272774,185.283981 127.961006,185.264526 
		C135.294983,185.214569 142.628967,185.164612 150.898331,185.237900 
		C158.921707,185.202667 166.945084,185.167435 175.898544,185.285065 
		C179.721954,185.341614 183.557571,185.228317 187.365433,185.501556 
		C191.326782,185.785828 192.550705,184.114014 192.544373,180.284103 
		C192.458679,128.403214 192.463577,76.522125 192.513748,24.641155 
		C192.516907,21.364100 191.638367,19.672991 187.996048,19.958176 
		C184.357620,20.243057 180.686966,20.116444 176.097946,20.039434 
		C170.074860,20.081936 164.051773,20.124435 157.096313,20.047974 
		C151.737488,20.089039 146.378662,20.130102 140.090576,20.062778 
	M427.552094,168.648727 
		C433.862122,163.224350 435.937347,156.054031 435.947693,148.075745 
		C435.972809,128.751068 435.959412,109.426353 435.957520,90.101654 
		C435.956482,79.431290 435.952820,79.431290 424.059601,79.983231 
		C422.231934,79.948166 420.403320,79.855682 418.576782,79.887131 
		C404.306946,80.132774 405.311249,77.156342 405.305817,93.732903 
		C405.304596,97.478661 406.777710,99.438499 410.664734,98.981537 
		C415.378387,98.427391 416.755341,100.791222 416.715576,105.120567 
		C416.591827,118.581955 416.726074,132.045517 416.653290,145.507660 
		C416.597931,155.742935 411.362488,158.729538 401.795319,153.167419 
		C401.519531,151.373871 401.006317,149.580704 401.003387,147.786713 
		C400.954102,117.634064 401.020996,87.481125 400.917419,57.328747 
		C400.899963,52.253250 402.900848,49.442146 408.768250,49.096359 
		C412.834045,49.329136 415.756622,50.684826 416.242157,55.402821 
		C417.234100,65.042374 417.335754,65.034721 426.906281,64.998436 
		C428.570557,64.992126 430.482574,65.456978 431.834625,64.794647 
		C433.437805,64.009308 435.538147,62.371002 435.739258,60.875870 
		C438.164185,42.850178 425.873108,29.396973 407.162781,30.142942 
		C405.699402,30.417021 404.245422,30.764566 402.771118,30.953573 
		C390.821381,32.485554 381.984589,41.765335 381.918457,53.811188 
		C381.740234,86.263748 381.743439,118.718781 381.944000,151.171173 
		C382.016449,162.898392 389.527618,171.554398 401.737976,174.577820 
		C410.814301,175.719269 419.661011,175.824448 427.552094,168.648727 
	M325.881592,49.813244 
		C324.611176,57.355274 323.227844,64.880318 322.090118,72.442307 
		C317.498138,102.962692 312.940094,133.488342 308.459991,164.025330 
		C306.842682,175.048828 305.868927,173.745453 316.527924,173.851471 
		C318.192322,173.868027 319.864960,173.730682 321.520081,173.851837 
		C324.526917,174.071915 326.156372,172.941879 326.517181,169.785034 
		C327.650208,159.871506 328.920746,149.973694 330.449127,139.342194 
		C330.610046,138.541306 330.822845,137.746902 330.924072,136.938522 
		C332.380554,125.305557 332.376953,125.305603 344.009094,124.921753 
		C344.335632,124.910980 344.660919,124.862495 345.849152,124.936752 
		C350.493561,124.473671 352.765839,125.712151 353.355927,131.213562 
		C354.748108,144.192276 357.185822,157.058853 359.232208,170.733017 
		C360.494354,171.755844 361.673553,173.505402 363.034668,173.660706 
		C366.639130,174.071991 370.322571,173.764206 373.974030,173.798309 
		C377.360352,173.829926 378.286133,172.087616 377.734375,168.992889 
		C372.957977,142.204453 368.212555,115.410477 363.408691,87.797638 
		C360.706329,72.074280 358.020721,56.348022 355.295105,40.628693 
		C353.760071,31.775433 353.730347,31.780584 344.053711,32.280552 
		C325.177277,32.601059 329.001221,28.180159 325.881592,49.813244 
	M280.462463,78.852531 
		C278.354523,66.718597 276.242065,54.585445 274.139984,42.450493 
		C272.259521,31.594877 272.264557,31.594004 260.059937,32.269886 
		C257.894684,32.240257 255.695435,32.444244 253.570892,32.134937 
		C248.287308,31.365707 246.582245,33.574970 245.827393,38.803955 
		C240.570740,75.217674 234.928848,111.575729 229.428177,147.954315 
		C228.166458,156.298660 226.973831,164.653442 225.628265,173.829712 
		C231.179214,173.829712 235.962463,173.728928 240.738815,173.866699 
		C243.704330,173.952240 244.754227,172.683640 245.107819,169.806061 
		C246.529129,158.239151 248.161270,146.697891 249.748917,135.151749 
		C251.110352,125.250771 251.130508,125.253540 261.873535,124.742950 
		C270.925690,124.982361 270.946320,124.979134 272.336334,133.859131 
		C273.646301,142.227982 274.906525,150.604630 276.141266,159.812241 
		C276.686127,163.434448 277.109406,167.081741 277.849060,170.663727 
		C278.074554,171.755951 279.134277,173.498245 279.874115,173.530823 
		C285.401459,173.774231 290.944427,173.663147 297.181946,173.663147 
		C291.503571,141.603119 286.020020,110.643074 280.462463,78.852531 
	M614.197327,61.984970 
		C611.503662,62.681152 608.551208,62.902676 606.181946,64.193985 
		C603.237915,65.798569 601.006897,65.617546 597.956970,64.342216 
		C594.587158,62.933102 590.682617,62.802910 586.241333,62.002411 
		C585.596313,61.872597 584.466492,61.886658 584.378906,61.591393 
		C583.070068,57.181881 579.495728,58.044659 576.307861,58.000225 
		C575.308716,57.986298 574.308899,57.988396 573.309692,58.004036 
		C564.243713,58.145939 564.892944,56.857086 564.884277,66.216637 
		C564.854614,98.363899 564.871643,130.511200 564.872253,162.658493 
		C564.872498,174.008209 564.874329,174.008209 576.183594,174.000259 
		C583.248169,173.995300 583.269470,173.995316 583.273315,166.915039 
		C583.287415,140.764145 583.302185,114.613213 583.270752,88.462357 
		C583.266785,85.161774 583.398315,82.053627 587.812012,80.621162 
		C592.753967,81.122498 592.726074,84.805824 592.728943,88.396736 
		C592.748840,112.886589 592.744080,137.376465 592.748352,161.866333 
		C592.750305,172.996078 592.751526,172.996063 603.756470,173.000900 
		C611.355347,173.004242 611.369873,173.004257 611.372681,165.464020 
		C611.382263,139.974564 611.376709,114.485107 611.387878,88.995651 
		C611.389343,85.660919 611.060486,82.157349 615.810791,80.610878 
		C620.282715,81.073013 620.821411,84.203171 620.815125,87.825569 
		C620.787659,103.640717 620.807617,119.455948 620.811890,135.271149 
		C620.814941,146.425003 620.721924,157.580872 620.947571,168.730240 
		C620.976379,170.154541 622.574158,172.668747 623.613159,172.759766 
		C628.516296,173.189377 633.478027,172.951279 639.009399,172.951279 
		C639.009399,170.563019 639.009399,168.779663 639.009460,166.996307 
		C639.009827,139.694275 639.029968,112.392220 639.002075,85.090218 
		C638.988098,71.426346 628.923279,61.821243 614.197327,61.984970 
	M468.414246,66.494865 
		C467.602509,66.356049 466.233429,66.450760 466.062714,66.043335 
		C463.557861,60.065483 458.336395,62.166115 454.042938,62.066574 
		C446.149292,61.883572 446.136292,62.044708 446.118317,70.200417 
		C446.050110,101.156845 445.989044,132.113297 445.924011,163.069733 
		C445.901215,173.933853 445.899567,173.933838 456.795563,173.866409 
		C464.012909,173.821747 464.206116,173.641083 464.271698,166.151947 
		C464.483063,142.021042 464.722382,117.890228 464.838165,93.758835 
		C464.856110,90.016075 465.434784,86.808212 469.888763,84.917305 
		C477.498199,85.065414 479.379333,86.203339 479.956573,91.007568 
		C481.034424,99.977699 481.034393,99.979187 490.398743,99.985390 
		C491.897552,99.986382 493.398560,99.910721 494.894653,99.969910 
		C497.669128,100.079674 498.587463,98.645309 498.845398,96.032562 
		C500.701996,77.225601 487.922638,64.542671 468.414246,66.494865 
	M527.155640,106.957397 
		C515.407715,107.465302 507.266541,114.702736 506.472717,126.263290 
		C505.917603,134.347305 505.882568,142.541107 506.515106,150.615402 
		C507.492889,163.096115 516.338135,171.859665 528.719116,173.084198 
		C535.695862,173.239792 542.677185,173.290344 549.647705,173.590759 
		C553.770691,173.768433 555.090149,172.087814 555.038635,168.003204 
		C554.837097,152.020493 554.942444,136.034027 554.910217,120.049019 
		C554.887756,108.892883 555.065857,97.729568 554.726562,86.582481 
		C554.235535,70.447273 543.591858,60.778545 527.156799,61.798786 
		C516.358704,63.382637 508.642731,69.959518 506.546173,79.956490 
		C505.807465,83.478935 505.944489,87.223946 505.987244,90.863747 
		C506.097351,100.228607 503.989258,100.576553 515.699585,100.557678 
		C524.173157,100.544014 524.148132,100.558098 524.193115,92.129623 
		C524.216675,87.714355 523.291382,82.967285 528.806702,80.024025 
		C533.824036,79.810005 536.205200,82.290642 536.198730,87.234650 
		C536.192139,92.231079 536.085327,97.231209 536.243469,102.222710 
		C536.353394,105.690666 534.874207,107.104660 531.493958,106.875587 
		C530.341125,106.797455 529.169800,106.991264 527.155640,106.957397 
	z"/>
	<path fill="#8E5A4C" opacity="1.000000" stroke="none" 
		d="
	M260.974762,124.595596 
		C251.130508,125.253540 251.110352,125.250771 249.748917,135.151749 
		C248.161270,146.697891 246.529129,158.239151 245.107819,169.806061 
		C244.754227,172.683640 243.704330,173.952240 240.738815,173.866699 
		C235.962463,173.728928 231.179214,173.829712 225.628265,173.829712 
		C226.973831,164.653442 228.166458,156.298660 229.428177,147.954315 
		C234.928848,111.575729 240.570740,75.217674 245.827393,38.803955 
		C246.582245,33.574970 248.287308,31.365707 253.570892,32.134937 
		C255.695435,32.444244 257.894684,32.240257 260.518372,32.779877 
		C260.931427,41.017109 260.885986,48.744343 260.669037,56.778107 
		C258.070099,73.194916 255.642685,89.305199 253.163193,105.761116 
		C256.084320,105.920570 258.537567,106.054489 260.991028,106.644600 
		C260.985748,112.932396 260.980255,118.764000 260.974762,124.595596 
	z"/>
	<path fill="#663A2D" opacity="1.000000" stroke="none" 
		d="
	M400.978668,174.264648 
		C389.527618,171.554398 382.016449,162.898392 381.944000,151.171173 
		C381.743439,118.718781 381.740234,86.263748 381.918457,53.811188 
		C381.984589,41.765335 390.821381,32.485554 402.771118,30.953573 
		C404.245422,30.764566 405.699402,30.417021 407.571838,30.608067 
		C407.985046,37.036922 407.989136,43.000652 407.993256,48.964386 
		C402.900848,49.442146 400.899963,52.253250 400.917419,57.328747 
		C401.020996,87.481125 400.954102,117.634064 401.003387,147.786713 
		C401.006317,149.580704 401.519531,151.373871 401.796906,153.948975 
		C401.525208,161.241898 401.251953,167.753281 400.978668,174.264648 
	z"/>
	<path fill="#78493B" opacity="1.000000" stroke="none" 
		d="
	M527.973022,61.829681 
		C543.591858,60.778545 554.235535,70.447273 554.726562,86.582481 
		C555.065857,97.729568 554.887756,108.892883 554.910217,120.049019 
		C554.942444,136.034027 554.837097,152.020493 555.038635,168.003204 
		C555.090149,172.087814 553.770691,173.768433 549.647705,173.590759 
		C542.677185,173.290344 535.695862,173.239792 528.362549,172.538757 
		C528.043701,166.146423 528.081360,160.299515 528.509277,154.568985 
		C534.417664,155.035538 536.562378,153.501984 536.699097,148.443939 
		C536.868713,142.167664 536.616882,135.880905 536.615295,129.598663 
		C536.614563,126.746445 535.354553,125.308777 532.453247,125.283127 
		C530.969238,125.270012 529.486938,125.076591 528.002991,124.498993 
		C528.003723,118.375824 528.005310,112.718315 528.006958,107.060814 
		C529.169800,106.991264 530.341125,106.797455 531.493958,106.875587 
		C534.874207,107.104660 536.353394,105.690666 536.243469,102.222710 
		C536.085327,97.231209 536.192139,92.231079 536.198730,87.234650 
		C536.205200,82.290642 533.824036,79.810005 528.403687,79.548752 
		C527.991394,73.325539 527.982239,67.577614 527.973022,61.829681 
	z"/>
	<path fill="#613629" opacity="1.000000" stroke="none" 
		d="
	M469.027954,84.881721 
		C465.434784,86.808212 464.856110,90.016075 464.838165,93.758835 
		C464.722382,117.890228 464.483063,142.021042 464.271698,166.151947 
		C464.206116,173.641083 464.012909,173.821747 456.795563,173.866409 
		C445.899567,173.933838 445.901215,173.933853 445.924011,163.069733 
		C445.989044,132.113297 446.050110,101.156845 446.118317,70.200417 
		C446.136292,62.044708 446.149292,61.883572 454.042938,62.066574 
		C458.336395,62.166115 463.557861,60.065483 466.062714,66.043335 
		C466.233429,66.450760 467.602509,66.356049 468.738098,66.969711 
		C469.050629,73.256950 469.039276,79.069336 469.027954,84.881721 
	z"/>
	<path fill="#825142" opacity="1.000000" stroke="none" 
		d="
	M587.023315,80.529648 
		C583.398315,82.053627 583.266785,85.161774 583.270752,88.462357 
		C583.302185,114.613213 583.287415,140.764145 583.273315,166.915039 
		C583.269470,173.995316 583.248169,173.995300 576.183594,174.000259 
		C564.874329,174.008209 564.872498,174.008209 564.872253,162.658493 
		C564.871643,130.511200 564.854614,98.363899 564.884277,66.216637 
		C564.892944,56.857086 564.243713,58.145939 573.309692,58.004036 
		C574.308899,57.988396 575.308716,57.986298 576.307861,58.000225 
		C579.495728,58.044659 583.070068,57.181881 584.378906,61.591393 
		C584.466492,61.886658 585.596313,61.872597 586.625000,62.519520 
		C587.013550,68.867638 587.018433,74.698639 587.023315,80.529648 
	z"/>
	<path fill="#8A5748" opacity="1.000000" stroke="none" 
		d="
	M587.417664,80.575409 
		C587.018433,74.698639 587.013550,68.867638 587.009766,62.576164 
		C590.682617,62.802910 594.587158,62.933102 597.956970,64.342216 
		C601.006897,65.617546 603.237915,65.798569 606.181946,64.193985 
		C608.551208,62.902676 611.503662,62.681152 614.601807,62.501320 
		C615.011230,68.846535 615.016235,74.675400 615.021240,80.504265 
		C611.060486,82.157349 611.389343,85.660919 611.387878,88.995651 
		C611.376709,114.485107 611.382263,139.974564 611.372681,165.464020 
		C611.369873,173.004257 611.355347,173.004242 603.756470,173.000900 
		C592.751526,172.996063 592.750305,172.996078 592.748352,161.866333 
		C592.744080,137.376465 592.748840,112.886589 592.728943,88.396736 
		C592.726074,84.805824 592.753967,81.122498 587.417664,80.575409 
	z"/>
	<path fill="#915D4E" opacity="1.000000" stroke="none" 
		d="
	M615.416016,80.557571 
		C615.016235,74.675400 615.011230,68.846535 615.007446,62.555794 
		C628.923279,61.821243 638.988098,71.426346 639.002075,85.090218 
		C639.029968,112.392220 639.009827,139.694275 639.009460,166.996307 
		C639.009399,168.779663 639.009399,170.563019 639.009399,172.951279 
		C633.478027,172.951279 628.516296,173.189377 623.613159,172.759766 
		C622.574158,172.668747 620.976379,170.154541 620.947571,168.730240 
		C620.721924,157.580872 620.814941,146.425003 620.811890,135.271149 
		C620.807617,119.455948 620.787659,103.640717 620.815125,87.825569 
		C620.821411,84.203171 620.282715,81.073013 615.416016,80.557571 
	z"/>
	<path fill="#704335" opacity="1.000000" stroke="none" 
		d="
	M344.979919,32.394249 
		C353.730347,31.780584 353.760071,31.775433 355.295105,40.628693 
		C358.020721,56.348022 360.706329,72.074280 363.245911,88.622162 
		C362.723175,92.055252 362.073517,94.661110 362.049042,97.272827 
		C361.856354,117.849655 361.899963,138.429504 361.564453,159.003418 
		C361.504608,162.671082 360.024811,166.315582 359.200653,169.970779 
		C357.185822,157.058853 354.748108,144.192276 353.355927,131.213562 
		C352.765839,125.712151 350.493561,124.473671 345.419769,124.427132 
		C344.988892,118.005608 344.987396,112.093697 345.351501,106.126427 
		C350.696228,106.174629 349.181366,102.601509 348.848053,100.114799 
		C346.886322,85.480415 344.765594,70.867355 342.967651,55.955139 
		C343.819519,53.496857 344.811096,51.348038 344.904694,49.160797 
		C345.143463,43.581089 344.981537,37.984241 344.979919,32.394249 
	z"/>
	<path fill="#8A5748" opacity="1.000000" stroke="none" 
		d="
	M261.424133,124.669273 
		C260.980255,118.764000 260.985748,112.932396 261.422241,106.586739 
		C263.785950,105.970215 265.718750,105.867752 268.201050,105.736153 
		C265.685333,88.898071 263.262939,72.684830 260.840576,56.471581 
		C260.885986,48.744343 260.931427,41.017109 260.975677,32.847378 
		C272.264557,31.594004 272.259521,31.594877 274.139984,42.450493 
		C276.242065,54.585445 278.354523,66.718597 280.299957,79.666199 
		C279.758057,83.249245 279.064880,86.016945 279.049957,88.788284 
		C278.949036,107.547272 279.171997,126.310051 278.859894,145.064438 
		C278.782471,149.715775 277.121613,154.340744 276.188629,158.977844 
		C274.906525,150.604630 273.646301,142.227982 272.336334,133.859131 
		C270.946320,124.979134 270.925690,124.982361 261.424133,124.669273 
	z"/>
	<path fill="#78493B" opacity="1.000000" stroke="none" 
		d="
	M330.138031,140.069794 
		C328.920746,149.973694 327.650208,159.871506 326.517181,169.785034 
		C326.156372,172.941879 324.526917,174.071915 321.520081,173.851837 
		C319.864960,173.730682 318.192322,173.868027 316.527924,173.851471 
		C305.868927,173.745453 306.842682,175.048828 308.459991,164.025330 
		C312.940094,133.488342 317.498138,102.962692 322.090118,72.442307 
		C323.227844,64.880318 324.611176,57.355274 326.231781,49.698868 
		C327.054077,52.145943 327.925140,54.705658 327.936340,57.269119 
		C328.042877,81.693855 327.926361,106.119781 328.100647,130.543747 
		C328.123352,133.723785 329.427460,136.894669 330.138031,140.069794 
	z"/>
	<path fill="#764739" opacity="1.000000" stroke="none" 
		d="
	M330.293579,139.705994 
		C329.427460,136.894669 328.123352,133.723785 328.100647,130.543747 
		C327.926361,106.119781 328.042877,81.693855 327.936340,57.269119 
		C327.925140,54.705658 327.054077,52.145943 326.348114,49.299530 
		C329.001221,28.180159 325.177277,32.601059 344.516815,32.337402 
		C344.981537,37.984241 345.143463,43.581089 344.904694,49.160797 
		C344.811096,51.348038 343.819519,53.496857 342.834167,56.277771 
		C341.964508,58.819820 341.336853,60.724293 341.057281,62.678555 
		C339.484161,73.674866 338.065552,84.693504 336.456085,95.684303 
		C334.984283,105.734901 334.906982,105.723579 344.985901,106.181793 
		C344.987396,112.093697 344.988892,118.005608 344.988586,124.374557 
		C344.660919,124.862495 344.335632,124.910980 344.009094,124.921753 
		C332.376953,125.305603 332.380554,125.305557 330.924072,136.938522 
		C330.822845,137.746902 330.610046,138.541306 330.293579,139.705994 
	z"/>
	<path fill="#613629" opacity="1.000000" stroke="none" 
		d="
	M401.358337,174.421234 
		C401.251953,167.753281 401.525208,161.241898 401.941223,154.338898 
		C411.362488,158.729538 416.597931,155.742935 416.653290,145.507660 
		C416.726074,132.045517 416.591827,118.581955 416.715576,105.120567 
		C416.755341,100.791222 415.378387,98.427391 410.664734,98.981537 
		C406.777710,99.438499 405.304596,97.478661 405.305817,93.732903 
		C405.311249,77.156342 404.306946,80.132774 418.576782,79.887131 
		C420.403320,79.855682 422.231934,79.948166 424.526306,80.490112 
		C424.995026,107.311043 424.933624,133.625458 425.085663,159.938644 
		C425.103119,162.958282 426.312561,165.971024 426.969299,168.986954 
		C419.661011,175.824448 410.814301,175.719269 401.358337,174.421234 
	z"/>
	<path fill="#714436" opacity="1.000000" stroke="none" 
		d="
	M528.119019,154.452621 
		C528.081360,160.299515 528.043701,166.146423 528.007507,172.456665 
		C516.338135,171.859665 507.492889,163.096115 506.515106,150.615402 
		C505.882568,142.541107 505.917603,134.347305 506.472717,126.263290 
		C507.266541,114.702736 515.407715,107.465302 527.581299,107.009109 
		C528.005310,112.718315 528.003723,118.375824 527.633789,124.638596 
		C526.434265,126.863274 524.974548,128.449219 524.886169,130.108185 
		C524.586182,135.742432 524.433716,141.431824 524.922058,147.039429 
		C525.143677,149.584000 527.002747,151.985962 528.119019,154.452621 
	z"/>
	<path fill="#825142" opacity="1.000000" stroke="none" 
		d="
	M276.164948,159.395050 
		C277.121613,154.340744 278.782471,149.715775 278.859894,145.064438 
		C279.171997,126.310051 278.949036,107.547272 279.049957,88.788284 
		C279.064880,86.016945 279.758057,83.249245 280.336975,80.081451 
		C286.020020,110.643074 291.503571,141.603119 297.181946,173.663147 
		C290.944427,173.663147 285.401459,173.774231 279.874115,173.530823 
		C279.134277,173.498245 278.074554,171.755951 277.849060,170.663727 
		C277.109406,167.081741 276.686127,163.434448 276.164948,159.395050 
	z"/>
	<path fill="#5C3225" opacity="1.000000" stroke="none" 
		d="
	M427.260681,168.817841 
		C426.312561,165.971024 425.103119,162.958282 425.085663,159.938644 
		C424.933624,133.625458 424.995026,107.311043 424.992554,80.533745 
		C435.952820,79.431290 435.956482,79.431290 435.957520,90.101654 
		C435.959412,109.426353 435.972809,128.751068 435.947693,148.075745 
		C435.937347,156.054031 433.862122,163.224350 427.260681,168.817841 
	z"/>
	<path fill="#6C4032" opacity="1.000000" stroke="none" 
		d="
	M359.216431,170.351898 
		C360.024811,166.315582 361.504608,162.671082 361.564453,159.003418 
		C361.899963,138.429504 361.856354,117.849655 362.049042,97.272827 
		C362.073517,94.661110 362.723175,92.055252 363.270538,89.032410 
		C368.212555,115.410477 372.957977,142.204453 377.734375,168.992889 
		C378.286133,172.087616 377.360352,173.829926 373.974030,173.798309 
		C370.322571,173.764206 366.639130,174.071991 363.034668,173.660706 
		C361.673553,173.505402 360.494354,171.755844 359.216431,170.351898 
	z"/>
	<path fill="#915D4E" opacity="1.000000" stroke="none" 
		d="
	M177.030426,20.170223 
		C180.686966,20.116444 184.357620,20.243057 187.996048,19.958176 
		C191.638367,19.672991 192.516907,21.364100 192.513748,24.641155 
		C192.463577,76.522125 192.458679,128.403214 192.544373,180.284103 
		C192.550705,184.114014 191.326782,185.785828 187.365433,185.501556 
		C183.557571,185.228317 179.721954,185.341614 175.443665,184.846527 
		C174.999802,183.442474 175.010818,182.476944 175.482819,181.452301 
		C177.276489,181.362930 178.609085,181.326569 179.941910,181.303421 
		C189.040573,181.145447 188.249649,182.182220 188.255524,172.917191 
		C188.284531,127.253311 188.272522,81.589409 188.273834,35.925507 
		C188.274170,24.443106 188.272247,24.443106 177.021271,23.509907 
		C177.024216,22.149294 177.027328,21.159758 177.030426,20.170223 
	z"/>
	<path fill="#6C4032" opacity="1.000000" stroke="none" 
		d="
	M469.458374,84.899513 
		C469.039276,79.069336 469.050629,73.256950 469.069275,67.020950 
		C487.922638,64.542671 500.701996,77.225601 498.845398,96.032562 
		C498.587463,98.645309 497.669128,100.079674 494.894653,99.969910 
		C493.398560,99.910721 491.897552,99.986382 490.398743,99.985390 
		C481.034393,99.979187 481.034424,99.977699 479.956573,91.007568 
		C479.379333,86.203339 477.498199,85.065414 469.458374,84.899513 
	z"/>
	<path fill="#5C3225" opacity="1.000000" stroke="none" 
		d="
	M408.380737,49.030373 
		C407.989136,43.000652 407.985046,37.036922 407.975159,30.615990 
		C425.873108,29.396973 438.164185,42.850178 435.739258,60.875870 
		C435.538147,62.371002 433.437805,64.009308 431.834625,64.794647 
		C430.482574,65.456978 428.570557,64.992126 426.906281,64.998436 
		C417.335754,65.034721 417.234100,65.042374 416.242157,55.402821 
		C415.756622,50.684826 412.834045,49.329136 408.380737,49.030373 
	z"/>
	<path fill="#915D4E" opacity="1.000000" stroke="none" 
		d="
	M35.019665,185.161377 
		C27.001575,185.861420 26.996370,185.861420 26.996054,177.933228 
		C26.994032,127.555260 26.994492,77.177299 26.994133,26.799335 
		C26.994120,24.825516 26.994131,22.851696 26.994131,20.059301 
		C29.946602,20.059301 32.517838,20.059301 35.538754,20.484081 
		C35.988892,21.901150 35.989349,22.893436 35.571331,23.946556 
		C32.300587,23.747141 30.884163,24.698618 31.029940,27.910509 
		C31.256075,32.893009 31.083006,37.893532 31.082954,42.886414 
		C31.082497,87.156677 31.087301,131.426941 31.072748,175.697205 
		C31.071806,178.561935 30.610903,181.637024 34.988708,181.869217 
		C34.999096,183.210434 35.009380,184.185898 35.019665,185.161377 
	z"/>
	<path fill="#714436" opacity="1.000000" stroke="none" 
		d="
	M527.564941,61.814232 
		C527.982239,67.577614 527.991394,73.325539 528.001221,79.542252 
		C523.291382,82.967285 524.216675,87.714355 524.193115,92.129623 
		C524.148132,100.558098 524.173157,100.544014 515.699585,100.557678 
		C503.989258,100.576553 506.097351,100.228607 505.987244,90.863747 
		C505.944489,87.223946 505.807465,83.478935 506.546173,79.956490 
		C508.642731,69.959518 516.358704,63.382637 527.564941,61.814232 
	z"/>
	<path fill="#553227" opacity="1.000000" stroke="none" 
		d="
	M127.029388,185.207184 
		C115.272774,185.283981 103.516159,185.360779 91.370972,184.951096 
		C90.963470,183.460159 90.944542,182.455719 91.392609,181.369659 
		C103.596680,181.345459 115.333771,181.402893 127.064575,181.834778 
		C127.048660,183.208542 127.039024,184.207855 127.029388,185.207184 
	z"/>
	<path fill="#613629" opacity="1.000000" stroke="none" 
		d="
	M89.954620,20.165771 
		C101.669388,20.132244 113.384163,20.098713 125.564697,20.488098 
		C126.029167,21.900618 126.027870,22.890224 125.558792,23.935757 
		C113.382484,23.954084 101.673965,23.916487 89.966965,23.507534 
		C89.963867,22.146042 89.959244,21.155907 89.954620,20.165771 
	z"/>
	<path fill="#825142" opacity="1.000000" stroke="none" 
		d="
	M175.021835,181.511414 
		C175.010818,182.476944 174.999802,183.442474 174.978638,184.770111 
		C166.945084,185.167435 158.921707,185.202667 150.444641,184.815735 
		C150.004272,183.432434 150.017593,182.471268 150.496140,181.465195 
		C158.981506,181.450653 167.001678,181.481033 175.021835,181.511414 
	z"/>
	<path fill="#704335" opacity="1.000000" stroke="none" 
		d="
	M90.925621,181.451263 
		C90.944542,182.455719 90.963470,183.460159 90.975494,184.841705 
		C83.632133,185.249680 76.295677,185.280533 68.487854,184.855225 
		C68.000618,183.435623 67.984741,182.472198 68.433365,181.428986 
		C76.240463,181.383209 83.583038,181.417236 90.925621,181.451263 
	z"/>
	<path fill="#704335" opacity="1.000000" stroke="none" 
		d="
	M150.030930,181.510132 
		C150.017593,182.471268 150.004272,183.432434 149.976944,184.754120 
		C142.628967,185.164612 135.294983,185.214569 127.495193,185.235840 
		C127.039024,184.207855 127.048660,183.208542 127.528839,181.802124 
		C135.343231,181.433380 142.687088,181.471756 150.030930,181.510132 
	z"/>
	<path fill="#704335" opacity="1.000000" stroke="none" 
		d="
	M89.490128,20.132290 
		C89.959244,21.155907 89.963867,22.146042 89.502174,23.544336 
		C82.686409,23.934958 76.336960,23.917419 69.908478,23.585974 
		C69.548714,22.230469 69.267990,21.188871 68.987267,20.147276 
		C75.666718,20.131121 82.346176,20.114964 89.490128,20.132290 
	z"/>
	<path fill="#825142" opacity="1.000000" stroke="none" 
		d="
	M176.564178,20.104828 
		C177.027328,21.159758 177.024216,22.149294 176.556381,23.582308 
		C170.067841,23.978306 164.044006,23.930824 158.019165,23.511698 
		C158.021667,22.149014 158.025177,21.157974 158.028687,20.166937 
		C164.051773,20.124435 170.074860,20.081936 176.564178,20.104828 
	z"/>
	<path fill="#825142" opacity="1.000000" stroke="none" 
		d="
	M67.968857,181.508759 
		C67.984741,182.472198 68.000618,183.435623 68.029434,184.760605 
		C62.339733,185.185074 56.637104,185.247986 50.469830,184.856476 
		C49.999588,183.438599 49.993996,182.475143 50.451859,181.438156 
		C56.599827,181.412674 62.284340,181.460724 67.968857,181.508759 
	z"/>
	<path fill="#78493B" opacity="1.000000" stroke="none" 
		d="
	M68.522095,20.103504 
		C69.267990,21.188871 69.548714,22.230469 69.443420,23.634335 
		C63.363667,23.963205 57.669933,23.929804 51.980267,23.522324 
		C51.978344,22.150696 51.972347,21.153147 51.966351,20.155600 
		C57.329876,20.123644 62.693398,20.091688 68.522095,20.103504 
	z"/>
	<path fill="#764739" opacity="1.000000" stroke="none" 
		d="
	M157.562500,20.107456 
		C158.025177,21.157974 158.021667,22.149014 157.553772,23.577190 
		C151.399353,23.966524 145.709351,23.918720 140.101059,23.562057 
		C140.461807,22.225857 140.740814,21.198513 141.019836,20.171167 
		C146.378662,20.130102 151.737488,20.089039 157.562500,20.107456 
	z"/>
	<path fill="#8A5748" opacity="1.000000" stroke="none" 
		d="
	M51.503124,20.114452 
		C51.972347,21.153147 51.978344,22.150696 51.516800,23.567703 
		C46.029442,23.953348 41.009624,23.919537 35.989807,23.885725 
		C35.989349,22.893436 35.988892,21.901150 35.986828,20.536768 
		C41.003445,20.134218 46.021671,20.103762 51.503124,20.114452 
	z"/>
	<path fill="#8A5748" opacity="1.000000" stroke="none" 
		d="
	M49.988403,181.511688 
		C49.993996,182.475143 49.999588,183.438599 50.010269,184.763474 
		C45.321255,185.201279 40.627151,185.277649 35.476357,185.257706 
		C35.009380,184.185898 34.999096,183.210434 35.449417,181.788422 
		C40.602818,181.398483 45.295609,181.455078 49.988403,181.511688 
	z"/>
	<path fill="#6C4032" opacity="1.000000" stroke="none" 
		d="
	M140.555206,20.116974 
		C140.740814,21.198513 140.461807,22.225857 139.638382,23.621788 
		C134.738174,23.953526 130.382385,23.916677 126.026581,23.879829 
		C126.027870,22.890224 126.029167,21.900618 126.033142,20.540024 
		C130.720734,20.133619 135.405655,20.098198 140.555206,20.116974 
	z"/>
	<path fill="#1C1008" opacity="1.000000" stroke="none" 
		d="
	M260.669037,56.778107 
		C263.262939,72.684830 265.685333,88.898071 268.201050,105.736153 
		C265.718750,105.867752 263.785950,105.970215 261.421997,106.130539 
		C258.537567,106.054489 256.084320,105.920570 253.163193,105.761116 
		C255.642685,89.305199 258.070099,73.194916 260.669037,56.778107 
	z"/>
	<path fill="#1C1008" opacity="1.000000" stroke="none" 
		d="
	M528.509277,154.568985 
		C527.002747,151.985962 525.143677,149.584000 524.922058,147.039429 
		C524.433716,141.431824 524.586182,135.742432 524.886169,130.108185 
		C524.974548,128.449219 526.434265,126.863274 527.634644,125.104263 
		C529.486938,125.076591 530.969238,125.270012 532.453247,125.283127 
		C535.354553,125.308777 536.614563,126.746445 536.615295,129.598663 
		C536.616882,135.880905 536.868713,142.167664 536.699097,148.443939 
		C536.562378,153.501984 534.417664,155.035538 528.509277,154.568985 
	z"/>
	<path fill="#1C1008" opacity="1.000000" stroke="none" 
		d="
	M345.351501,106.126427 
		C334.906982,105.723579 334.984283,105.734901 336.456085,95.684303 
		C338.065552,84.693504 339.484161,73.674866 341.057281,62.678555 
		C341.336853,60.724293 341.964508,58.819820 342.564941,56.569733 
		C344.765594,70.867355 346.886322,85.480415 348.848053,100.114799 
		C349.181366,102.601509 350.696228,106.174629 345.351501,106.126427 
	z"/>
	<path fill="#190D07" opacity="1.000000" stroke="none" 
		d="
	M125.558792,23.935757 
		C130.382385,23.916677 134.738174,23.953526 139.556656,23.930645 
		C145.709351,23.918720 151.399353,23.966524 157.554779,23.948837 
		C164.044006,23.930824 170.067841,23.978306 176.556549,23.953384 
		C188.272247,24.443106 188.274170,24.443106 188.273834,35.925507 
		C188.272522,81.589409 188.284531,127.253311 188.255524,172.917191 
		C188.249649,182.182220 189.040573,181.145447 179.941910,181.303421 
		C178.609085,181.326569 177.276489,181.362930 175.482819,181.452301 
		C167.001678,181.481033 158.981506,181.450653 150.496140,181.465210 
		C142.687088,181.471756 135.343231,181.433380 127.535126,181.427673 
		C115.333771,181.402893 103.596680,181.345459 91.392609,181.369644 
		C83.583038,181.417236 76.240463,181.383209 68.433365,181.428970 
		C62.284340,181.460724 56.599827,181.412674 50.451859,181.438141 
		C45.295609,181.455078 40.602818,181.398483 35.449318,181.422668 
		C30.610903,181.637024 31.071806,178.561935 31.072748,175.697205 
		C31.087301,131.426941 31.082497,87.156677 31.082954,42.886414 
		C31.083006,37.893532 31.256075,32.893009 31.029940,27.910509 
		C30.884163,24.698618 32.300587,23.747141 35.571335,23.946556 
		C41.009624,23.919537 46.029442,23.953348 51.512726,23.941782 
		C57.669933,23.929804 63.363667,23.963205 69.522461,23.948244 
		C76.336960,23.917419 82.686409,23.934958 89.500648,23.915691 
		C101.673965,23.916487 113.382484,23.954084 125.558792,23.935757 
	M162.617020,44.996647 
		C161.744598,44.664787 160.872192,44.332928 159.402176,43.756115 
		C157.930237,43.818638 156.458298,43.881161 154.312439,43.983017 
		C153.122208,44.546169 151.931976,45.109325 150.156326,46.030075 
		C144.034119,52.345051 144.685455,58.920742 152.324921,64.026932 
		C153.198547,64.289215 154.072174,64.551491 155.795898,64.955902 
		C157.221680,64.870422 158.647446,64.784935 160.685471,64.578545 
		C161.899292,63.840034 163.113098,63.101524 164.807053,61.852589 
		C169.830841,55.869545 169.237915,50.379211 162.617020,44.996647 
	M63.099354,146.940536 
		C64.690018,148.388702 66.280685,149.836884 68.274437,151.794479 
		C70.188622,152.836716 72.102798,153.878967 74.581985,155.344055 
		C76.382736,155.875305 78.183495,156.406570 80.751755,157.227692 
		C84.835640,157.155533 88.919525,157.083374 93.726013,156.977127 
		C95.497528,156.357239 97.269035,155.737350 99.625214,154.837753 
		C101.111412,154.055603 102.597610,153.273468 104.697983,152.143311 
		C106.796371,150.094543 108.894768,148.045776 111.534065,145.597153 
		C120.815872,132.975037 120.166359,116.979568 109.633514,105.623848 
		C108.152939,104.357819 106.672363,103.091789 104.777153,101.318558 
		C103.244247,100.491814 101.711342,99.665062 99.642822,98.401665 
		C97.446297,97.695862 95.249763,96.990059 92.146942,96.091057 
		C88.073685,96.203743 84.000420,96.316429 79.177101,96.586212 
		C77.127823,97.398018 75.078545,98.209824 72.345871,99.096230 
		C70.530083,100.383461 68.714294,101.670692 66.311897,103.227554 
		C64.907936,104.838608 63.503979,106.449661 61.576298,108.494705 
		C53.058907,120.773224 53.549530,135.584351 63.099354,146.940536 
	z"/>
	<path fill="#613629" opacity="1.000000" stroke="none" 
		d="
	M93.003410,157.011215 
		C88.919525,157.083374 84.835640,157.155533 80.374039,156.683960 
		C79.973259,136.236511 79.950211,116.332817 79.927162,96.429123 
		C84.000420,96.316429 88.073685,96.203743 92.595299,96.636627 
		C93.030235,117.125206 93.016823,137.068207 93.003410,157.011215 
	z"/>
	<path fill="#6C4032" opacity="1.000000" stroke="none" 
		d="
	M79.552132,96.507668 
		C79.950211,116.332817 79.973259,136.236511 79.990280,156.539017 
		C78.183495,156.406570 76.382736,155.875305 74.295868,154.669159 
		C74.005157,138.445648 74.047348,122.896759 73.952568,107.348701 
		C73.935646,104.571236 73.351501,101.797234 73.029266,99.021622 
		C75.078545,98.209824 77.127823,97.398018 79.552132,96.507668 
	z"/>
	<path fill="#764739" opacity="1.000000" stroke="none" 
		d="
	M104.083817,152.491333 
		C102.597610,153.273468 101.111412,154.055603 99.215118,154.571304 
		C98.575836,152.994492 98.151688,151.684769 98.147263,150.373642 
		C98.096100,135.212784 98.031319,120.050842 98.195992,104.891647 
		C98.217979,102.866936 99.486938,100.855759 100.178436,98.838318 
		C101.711342,99.665062 103.244247,100.491814 104.832565,101.970238 
		C104.598160,104.921425 104.066971,107.219978 104.057915,109.520592 
		C104.001518,123.843918 104.062057,138.167694 104.083817,152.491333 
	z"/>
	<path fill="#6C4032" opacity="1.000000" stroke="none" 
		d="
	M99.910629,98.619995 
		C99.486938,100.855759 98.217979,102.866936 98.195992,104.891647 
		C98.031319,120.050842 98.096100,135.212784 98.147263,150.373642 
		C98.151688,151.684769 98.575836,152.994492 98.922783,154.711151 
		C97.269035,155.737350 95.497528,156.357239 93.364716,156.994171 
		C93.016823,137.068207 93.030235,117.125206 93.048447,96.733231 
		C95.249763,96.990059 97.446297,97.695862 99.910629,98.619995 
	z"/>
	<path fill="#78493B" opacity="1.000000" stroke="none" 
		d="
	M72.687569,99.058929 
		C73.351501,101.797234 73.935646,104.571236 73.952568,107.348701 
		C74.047348,122.896759 74.005157,138.445648 74.013359,154.457733 
		C72.102798,153.878967 70.188622,152.836716 68.198654,151.123459 
		C68.309860,149.647659 68.654587,148.844009 68.660332,148.037933 
		C68.756836,134.484131 68.872307,120.929672 68.787102,107.376579 
		C68.777817,105.899796 67.557236,104.430626 66.898506,102.957932 
		C68.714294,101.670692 70.530083,100.383461 72.687569,99.058929 
	z"/>
	<path fill="#8A5748" opacity="1.000000" stroke="none" 
		d="
	M109.934662,106.208862 
		C120.166359,116.979568 120.815872,132.975037 111.020355,145.515015 
		C110.094147,144.544235 109.314415,143.651413 109.324547,142.767639 
		C109.464363,130.580643 109.712822,118.394905 109.934662,106.208862 
	z"/>
	<path fill="#8A5748" opacity="1.000000" stroke="none" 
		d="
	M62.830460,146.355804 
		C53.549530,135.584351 53.058907,120.773224 62.054985,108.578659 
		C62.632599,121.227013 62.731529,133.791412 62.830460,146.355804 
	z"/>
	<path fill="#825142" opacity="1.000000" stroke="none" 
		d="
	M109.784088,105.916351 
		C109.712822,118.394905 109.464363,130.580643 109.324547,142.767639 
		C109.314415,143.651413 110.094147,144.544235 110.749901,145.714935 
		C108.894768,148.045776 106.796371,150.094543 104.390900,152.317322 
		C104.062057,138.167694 104.001518,123.843918 104.057915,109.520592 
		C104.066971,107.219978 104.598160,104.921425 105.039886,102.223839 
		C106.672363,103.091789 108.152939,104.357819 109.784088,105.916351 
	z"/>
	<path fill="#825142" opacity="1.000000" stroke="none" 
		d="
	M62.964905,146.648163 
		C62.731529,133.791412 62.632599,121.227013 62.316841,108.361664 
		C63.503979,106.449661 64.907936,104.838608 66.605202,103.092743 
		C67.557236,104.430626 68.777817,105.899796 68.787102,107.376579 
		C68.872307,120.929672 68.756836,134.484131 68.660332,148.037933 
		C68.654587,148.844009 68.309860,149.647659 67.997116,150.868744 
		C66.280685,149.836884 64.690018,148.388702 62.964905,146.648163 
	z"/>
	<path fill="#613629" opacity="1.000000" stroke="none" 
		d="
	M160.073227,64.699448 
		C158.647446,64.784935 157.221680,64.870422 155.371597,64.429398 
		C154.960312,57.249828 154.973343,50.596756 154.986359,43.943684 
		C156.458298,43.881161 157.930237,43.818638 159.698486,44.347008 
		C160.020950,51.525085 160.047089,58.112270 160.073227,64.699448 
	z"/>
	<path fill="#825142" opacity="1.000000" stroke="none" 
		d="
	M151.903778,63.672005 
		C144.685455,58.920742 144.034119,52.345051 150.604019,46.260845 
		C151.335739,52.218414 151.619751,57.945210 151.903778,63.672005 
	z"/>
	<path fill="#825142" opacity="1.000000" stroke="none" 
		d="
	M163.028259,45.381351 
		C169.237915,50.379211 169.830841,55.869545 164.396057,61.700470 
		C163.666107,56.159348 163.347183,50.770351 163.028259,45.381351 
	z"/>
	<path fill="#704335" opacity="1.000000" stroke="none" 
		d="
	M152.114349,63.849468 
		C151.619751,57.945210 151.335739,52.218414 150.896729,46.082047 
		C151.931976,45.109325 153.122208,44.546169 154.649399,43.963348 
		C154.973343,50.596756 154.960312,57.249828 154.946548,64.358337 
		C154.072174,64.551491 153.198547,64.289215 152.114349,63.849468 
	z"/>
	<path fill="#704335" opacity="1.000000" stroke="none" 
		d="
	M162.822632,45.188999 
		C163.347183,50.770351 163.666107,56.159348 164.155975,61.955681 
		C163.113098,63.101524 161.899292,63.840034 160.379349,64.639000 
		C160.047089,58.112270 160.020950,51.525085 159.997284,44.469482 
		C160.872192,44.332928 161.744598,44.664787 162.822632,45.188999 
	z"/>
	</svg>